<svg width="21" height="21" viewBox="0 0 21 21" fill="none" xmlns="http://www.w3.org/2000/svg">
<path d="M19 16.8035L18.7832 16.6123C18.1682 16.0643 17.6299 15.4359 17.1829 14.7441C16.6946 13.7894 16.402 12.7467 16.3221 11.6774V8.52769C16.3264 6.84804 15.7171 5.22467 14.6088 3.96257C13.5005 2.70047 11.9695 1.88652 10.3034 1.67366V0.851175C10.3034 0.625429 10.2137 0.40893 10.0541 0.249303C9.89443 0.0896771 9.67793 0 9.45218 0C9.22644 0 9.00994 0.0896771 8.85031 0.249303C8.69068 0.40893 8.60101 0.625429 8.60101 0.851175V1.68641C6.94983 1.91462 5.4373 2.73349 4.34356 3.99134C3.24982 5.2492 2.64899 6.86081 2.65235 8.52769V11.6774C2.57249 12.7467 2.27986 13.7894 1.79161 14.7441C1.35224 15.4342 0.822607 16.0625 0.216779 16.6123L0 16.8035V18.6015H19V16.8035Z" fill="black"/>
<path d="M7.82324 19.271C7.87915 19.6751 8.07942 20.0454 8.38705 20.3134C8.69468 20.5814 9.0889 20.729 9.4969 20.729C9.9049 20.729 10.2991 20.5814 10.6068 20.3134C10.9144 20.0454 11.1146 19.6751 11.1706 19.271H7.82324Z" fill="black"/>
<circle cx="15.5" cy="5.5" r="4.75" fill="url(#paint0_linear_168_6613)" stroke="white" stroke-width="1.5"/>
<defs>
<linearGradient id="paint0_linear_168_6613" x1="15.5" y1="0" x2="15.5" y2="11" gradientUnits="userSpaceOnUse">
<stop stop-color="#F8A4C4"/>
<stop offset="1" stop-color="#FBCD91"/>
</linearGradient>
</defs>
</svg>
