<svg width="23" height="22" viewBox="0 0 23 22" fill="none" xmlns="http://www.w3.org/2000/svg">
<path d="M9.71798 6.01024L9.91523 6.00488H17.9554C18.8452 6.00481 19.7012 6.34514 20.3481 6.9561C20.9949 7.56705 21.3835 8.40233 21.4341 9.29064L21.4395 9.48896V11.1613C20.961 10.7021 20.4195 10.3133 19.8315 10.0068V9.48896C19.8315 8.99141 19.6338 8.51423 19.282 8.1624C18.9302 7.81057 18.453 7.61292 17.9554 7.61292H9.91523C9.44441 7.61294 8.99081 7.78999 8.64446 8.10892C8.29812 8.42786 8.08436 8.86537 8.04562 9.33459L8.03919 9.48896V17.5291C8.03923 18.0001 8.21643 18.4539 8.53559 18.8003C8.85475 19.1466 9.29252 19.3603 9.76193 19.3988L9.91523 19.4052H10.4319C10.7396 19.9948 11.1288 20.5362 11.5854 21.0132H9.91523C9.0253 21.0133 8.16909 20.6728 7.52223 20.0616C6.87536 19.4504 6.4869 18.6149 6.43651 17.7264L6.43115 17.5302V9.49004C6.43109 8.60011 6.77158 7.74389 7.38276 7.09703C7.99394 6.45017 8.82948 6.0617 9.71798 6.01132V6.01024Z" fill="black"/>
<path d="M14.5591 2.3927L14.6149 2.58245L15.3578 5.35685H13.6929L13.0626 2.99839C12.9989 2.76029 12.8889 2.53707 12.7389 2.34149C12.5889 2.14591 12.4018 1.9818 12.1884 1.85855C11.9749 1.7353 11.7393 1.65532 11.4949 1.62318C11.2505 1.59103 11.0022 1.60736 10.7641 1.67123L2.99839 3.7531C2.54506 3.87466 2.15377 4.16174 1.90172 4.55766C1.64968 4.95359 1.5552 5.42961 1.63692 5.89179L1.67123 6.05045L3.7531 13.8162C3.85075 14.1811 4.05629 14.5081 4.34282 14.7542C4.62935 15.0004 4.98353 15.1543 5.35899 15.1959V16.8104C4.66199 16.7688 3.99352 16.5189 3.44017 16.0931C2.88683 15.6672 2.47411 15.085 2.25548 14.4219L2.19974 14.2332L0.118935 6.46639C-0.111547 5.60703 -0.00452322 4.69205 0.41806 3.90908C0.840643 3.1261 1.54676 2.53446 2.39163 2.25548L2.58245 2.19974L10.3482 0.118935C11.2076 -0.111547 12.1225 -0.00452322 12.9055 0.41806C13.6885 0.840643 14.2801 1.54676 14.5591 2.39163V2.3927Z" fill="black"/>
<path d="M22.5115 16.1039C22.5115 14.5401 21.8903 13.0404 20.7846 11.9347C19.6788 10.829 18.1791 10.2078 16.6154 10.2078C15.0516 10.2078 13.5519 10.829 12.4462 11.9347C11.3404 13.0404 10.7192 14.5401 10.7192 16.1039C10.7192 17.6677 11.3404 19.1674 12.4462 20.2731C13.5519 21.3788 15.0516 22 16.6154 22C18.1791 22 19.6788 21.3788 20.7846 20.2731C21.8903 19.1674 22.5115 17.6677 22.5115 16.1039ZM16.5189 12.3593L16.6154 12.3518L16.7119 12.3604C16.819 12.38 16.9176 12.4317 16.9945 12.5087C17.0715 12.5856 17.1232 12.6842 17.1428 12.7913L17.1514 12.8878V15.5679L19.8368 15.569L19.9333 15.5775C20.0404 15.5971 20.139 15.6488 20.216 15.7258C20.293 15.8028 20.3447 15.9014 20.3642 16.0085L20.3728 16.105L20.3642 16.2015C20.3446 16.3087 20.2927 16.4074 20.2155 16.4844C20.1384 16.5614 20.0395 16.613 19.9322 16.6324L19.8357 16.641H17.1525V19.3243L17.1439 19.4207C17.1243 19.5278 17.0726 19.6264 16.9956 19.7034C16.9186 19.7804 16.82 19.8321 16.7129 19.8517L16.6164 19.8603L16.52 19.8517C16.4129 19.8321 16.3143 19.7804 16.2373 19.7034C16.1603 19.6264 16.1086 19.5278 16.089 19.4207L16.0804 19.3243V16.6399H13.3972L13.3007 16.6313C13.1936 16.6118 13.095 16.5601 13.018 16.4831C12.941 16.4061 12.8893 16.3075 12.8697 16.2004L12.8611 16.1039L12.8697 16.0074C12.8893 15.9003 12.941 15.8017 13.018 15.7247C13.095 15.6477 13.1936 15.596 13.3007 15.5765L13.3972 15.5679H16.0794V12.8878L16.0879 12.7913C16.1073 12.684 16.1589 12.5852 16.2359 12.508C16.3129 12.4308 16.4116 12.379 16.5189 12.3593Z" fill="black"/>
</svg>
