<svg width="20" height="14" viewBox="0 0 20 14" fill="none" xmlns="http://www.w3.org/2000/svg">
<path d="M0.998892 12H12.9989C13.2538 12.0003 13.4989 12.0979 13.6843 12.2728C13.8696 12.4478 13.9811 12.687 13.9961 12.9414C14.011 13.1958 13.9282 13.4464 13.7646 13.6418C13.601 13.8373 13.369 13.9629 13.1159 13.993L12.9989 14H0.998892C0.744012 13.9997 0.49886 13.9021 0.313524 13.7272C0.128188 13.5522 0.0166572 13.313 0.00172004 13.0586C-0.0132171 12.8042 0.0695667 12.5536 0.233157 12.3582C0.396747 12.1627 0.628796 12.0371 0.881892 12.007L0.998892 12H12.9989H0.998892ZM0.998892 8H18.9989C19.2538 8.00028 19.4989 8.09788 19.6843 8.27285C19.8696 8.44782 19.9811 8.68695 19.9961 8.94139C20.011 9.19584 19.9282 9.44638 19.7646 9.64183C19.601 9.83729 19.369 9.9629 19.1159 9.993L18.9989 10H0.998892C0.744012 9.99972 0.49886 9.90212 0.313524 9.72715C0.128188 9.55218 0.0166572 9.31305 0.00172004 9.05861C-0.0132171 8.80416 0.0695667 8.55362 0.233157 8.35817C0.396747 8.16271 0.628796 8.0371 0.881892 8.007L0.998892 8H18.9989H0.998892ZM0.998892 4H18.9989C19.2538 4.00028 19.4989 4.09788 19.6843 4.27285C19.8696 4.44782 19.9811 4.68695 19.9961 4.94139C20.011 5.19584 19.9282 5.44638 19.7646 5.64183C19.601 5.83729 19.369 5.9629 19.1159 5.993L18.9989 6H0.998892C0.744012 5.99972 0.49886 5.90212 0.313524 5.72715C0.128188 5.55218 0.0166572 5.31305 0.00172004 5.05861C-0.0132171 4.80416 0.0695667 4.55362 0.233157 4.35817C0.396747 4.16271 0.628796 4.0371 0.881892 4.007L0.998892 4H18.9989H0.998892ZM0.998892 0H18.9989C19.2538 0.000282707 19.4989 0.0978789 19.6843 0.272848C19.8696 0.447817 19.9811 0.686953 19.9961 0.941395C20.011 1.19584 19.9282 1.44638 19.7646 1.64183C19.601 1.83729 19.369 1.9629 19.1159 1.993L18.9989 2H0.998892C0.744012 1.99972 0.49886 1.90212 0.313524 1.72715C0.128188 1.55218 0.0166572 1.31305 0.00172004 1.05861C-0.0132171 0.804163 0.0695667 0.553621 0.233157 0.358168C0.396747 0.162715 0.628796 0.0371036 0.881892 0.00699997L0.998892 0H18.9989H0.998892Z" fill="black"/>
</svg>
