<svg width="457" height="124" viewBox="0 0 457 124" fill="none" xmlns="http://www.w3.org/2000/svg">
<g filter="url(#filter0_d_450_3)">
<line x1="10" y1="10.9" x2="439" y2="10.9" stroke="black" stroke-width="0.2"/>
<line x1="10" y1="100.9" x2="439" y2="100.9" stroke="black" stroke-width="0.2"/>
<line x1="10" y1="55.9" x2="439" y2="55.9" stroke="black" stroke-width="0.2"/>
<path d="M452 48.0433C430.167 12.5433 366.7 -37.1567 287.5 48.0433C188.5 154.543 200 65.5433 173 53.0433C146 40.5433 145.5 93.0433 113.5 89.5433C81.5 86.0433 80.5 40.5433 56.5 65.0433C32.5 89.5433 28.5 96.0433 5 72.0433" stroke="#F694D9" stroke-width="2"/>
<path d="M23.2666 115H22.3584V110.396L20.7422 110.879V110.103L23.1396 109.297H23.2666V115ZM29.6631 112.573C29.6631 113.381 29.4873 114.001 29.1357 114.434C28.7842 114.863 28.278 115.078 27.6172 115.078C26.9629 115.078 26.4583 114.867 26.1035 114.443C25.7487 114.017 25.568 113.407 25.5615 112.612V111.724C25.5615 110.913 25.7373 110.296 26.0889 109.873C26.4437 109.447 26.9499 109.233 27.6074 109.233C28.2682 109.233 28.7728 109.443 29.1211 109.863C29.4727 110.283 29.6533 110.882 29.6631 111.66V112.573ZM28.7549 111.587C28.7549 110.516 28.3724 109.98 27.6074 109.98C26.8457 109.98 26.4648 110.522 26.4648 111.606V112.705C26.4648 113.249 26.5641 113.657 26.7627 113.931C26.9613 114.204 27.2461 114.341 27.6172 114.341C28.3757 114.341 28.7549 113.789 28.7549 112.686V111.587ZM34.7412 112.573C34.7412 113.381 34.5654 114.001 34.2139 114.434C33.8623 114.863 33.3561 115.078 32.6953 115.078C32.041 115.078 31.5365 114.867 31.1816 114.443C30.8268 114.017 30.6462 113.407 30.6396 112.612V111.724C30.6396 110.913 30.8154 110.296 31.167 109.873C31.5218 109.447 32.028 109.233 32.6855 109.233C33.3464 109.233 33.8509 109.443 34.1992 109.863C34.5508 110.283 34.7314 110.882 34.7412 111.66V112.573ZM33.833 111.587C33.833 110.516 33.4505 109.98 32.6855 109.98C31.9238 109.98 31.543 110.522 31.543 111.606V112.705C31.543 113.249 31.6423 113.657 31.8408 113.931C32.0394 114.204 32.3242 114.341 32.6953 114.341C33.4538 114.341 33.833 113.789 33.833 112.686V111.587ZM37.5293 112.466L36.8115 113.159V115H35.9082V109.312H36.8115V112.021L37.4463 111.318L39.3848 109.312H40.4932L38.1543 111.846L40.6592 115H39.5605L37.5293 112.466Z" fill="black"/>
<path d="M87.2666 115H86.3584V110.396L84.7422 110.879V110.103L87.1396 109.297H87.2666V115ZM93.6631 112.573C93.6631 113.381 93.4873 114.001 93.1357 114.434C92.7842 114.863 92.278 115.078 91.6172 115.078C90.9629 115.078 90.4583 114.867 90.1035 114.443C89.7487 114.017 89.568 113.407 89.5615 112.612V111.724C89.5615 110.913 89.7373 110.296 90.0889 109.873C90.4437 109.447 90.9499 109.233 91.6074 109.233C92.2682 109.233 92.7728 109.443 93.1211 109.863C93.4727 110.283 93.6533 110.882 93.6631 111.66V112.573ZM92.7549 111.587C92.7549 110.516 92.3724 109.98 91.6074 109.98C90.8457 109.98 90.4648 110.522 90.4648 111.606V112.705C90.4648 113.249 90.5641 113.657 90.7627 113.931C90.9613 114.204 91.2461 114.341 91.6172 114.341C92.3757 114.341 92.7549 113.789 92.7549 112.686V111.587ZM98.7412 112.573C98.7412 113.381 98.5654 114.001 98.2139 114.434C97.8623 114.863 97.3561 115.078 96.6953 115.078C96.041 115.078 95.5365 114.867 95.1816 114.443C94.8268 114.017 94.6462 113.407 94.6396 112.612V111.724C94.6396 110.913 94.8154 110.296 95.167 109.873C95.5218 109.447 96.028 109.233 96.6855 109.233C97.3464 109.233 97.8509 109.443 98.1992 109.863C98.5508 110.283 98.7314 110.882 98.7412 111.66V112.573ZM97.833 111.587C97.833 110.516 97.4505 109.98 96.6855 109.98C95.9238 109.98 95.543 110.522 95.543 111.606V112.705C95.543 113.249 95.6423 113.657 95.8408 113.931C96.0394 114.204 96.3242 114.341 96.6953 114.341C97.4538 114.341 97.833 113.789 97.833 112.686V111.587ZM101.529 112.466L100.812 113.159V115H99.9082V109.312H100.812V112.021L101.446 111.318L103.385 109.312H104.493L102.154 111.846L104.659 115H103.561L101.529 112.466Z" fill="black"/>
<path d="M151.267 115H150.358V110.396L148.742 110.879V110.103L151.14 109.297H151.267V115ZM157.663 112.573C157.663 113.381 157.487 114.001 157.136 114.434C156.784 114.863 156.278 115.078 155.617 115.078C154.963 115.078 154.458 114.867 154.104 114.443C153.749 114.017 153.568 113.407 153.562 112.612V111.724C153.562 110.913 153.737 110.296 154.089 109.873C154.444 109.447 154.95 109.233 155.607 109.233C156.268 109.233 156.773 109.443 157.121 109.863C157.473 110.283 157.653 110.882 157.663 111.66V112.573ZM156.755 111.587C156.755 110.516 156.372 109.98 155.607 109.98C154.846 109.98 154.465 110.522 154.465 111.606V112.705C154.465 113.249 154.564 113.657 154.763 113.931C154.961 114.204 155.246 114.341 155.617 114.341C156.376 114.341 156.755 113.789 156.755 112.686V111.587ZM162.741 112.573C162.741 113.381 162.565 114.001 162.214 114.434C161.862 114.863 161.356 115.078 160.695 115.078C160.041 115.078 159.536 114.867 159.182 114.443C158.827 114.017 158.646 113.407 158.64 112.612V111.724C158.64 110.913 158.815 110.296 159.167 109.873C159.522 109.447 160.028 109.233 160.686 109.233C161.346 109.233 161.851 109.443 162.199 109.863C162.551 110.283 162.731 110.882 162.741 111.66V112.573ZM161.833 111.587C161.833 110.516 161.451 109.98 160.686 109.98C159.924 109.98 159.543 110.522 159.543 111.606V112.705C159.543 113.249 159.642 113.657 159.841 113.931C160.039 114.204 160.324 114.341 160.695 114.341C161.454 114.341 161.833 113.789 161.833 112.686V111.587ZM165.529 112.466L164.812 113.159V115H163.908V109.312H164.812V112.021L165.446 111.318L167.385 109.312H168.493L166.154 111.846L168.659 115H167.561L165.529 112.466Z" fill="black"/>
<path d="M215.267 115H214.358V110.396L212.742 110.879V110.103L215.14 109.297H215.267V115ZM221.663 112.573C221.663 113.381 221.487 114.001 221.136 114.434C220.784 114.863 220.278 115.078 219.617 115.078C218.963 115.078 218.458 114.867 218.104 114.443C217.749 114.017 217.568 113.407 217.562 112.612V111.724C217.562 110.913 217.737 110.296 218.089 109.873C218.444 109.447 218.95 109.233 219.607 109.233C220.268 109.233 220.773 109.443 221.121 109.863C221.473 110.283 221.653 110.882 221.663 111.66V112.573ZM220.755 111.587C220.755 110.516 220.372 109.98 219.607 109.98C218.846 109.98 218.465 110.522 218.465 111.606V112.705C218.465 113.249 218.564 113.657 218.763 113.931C218.961 114.204 219.246 114.341 219.617 114.341C220.376 114.341 220.755 113.789 220.755 112.686V111.587ZM226.741 112.573C226.741 113.381 226.565 114.001 226.214 114.434C225.862 114.863 225.356 115.078 224.695 115.078C224.041 115.078 223.536 114.867 223.182 114.443C222.827 114.017 222.646 113.407 222.64 112.612V111.724C222.64 110.913 222.815 110.296 223.167 109.873C223.522 109.447 224.028 109.233 224.686 109.233C225.346 109.233 225.851 109.443 226.199 109.863C226.551 110.283 226.731 110.882 226.741 111.66V112.573ZM225.833 111.587C225.833 110.516 225.451 109.98 224.686 109.98C223.924 109.98 223.543 110.522 223.543 111.606V112.705C223.543 113.249 223.642 113.657 223.841 113.931C224.039 114.204 224.324 114.341 224.695 114.341C225.454 114.341 225.833 113.789 225.833 112.686V111.587ZM229.529 112.466L228.812 113.159V115H227.908V109.312H228.812V112.021L229.446 111.318L231.385 109.312H232.493L230.154 111.846L232.659 115H231.561L229.529 112.466Z" fill="black"/>
<path d="M279.267 115H278.358V110.396L276.742 110.879V110.103L279.14 109.297H279.267V115ZM285.663 112.573C285.663 113.381 285.487 114.001 285.136 114.434C284.784 114.863 284.278 115.078 283.617 115.078C282.963 115.078 282.458 114.867 282.104 114.443C281.749 114.017 281.568 113.407 281.562 112.612V111.724C281.562 110.913 281.737 110.296 282.089 109.873C282.444 109.447 282.95 109.233 283.607 109.233C284.268 109.233 284.773 109.443 285.121 109.863C285.473 110.283 285.653 110.882 285.663 111.66V112.573ZM284.755 111.587C284.755 110.516 284.372 109.98 283.607 109.98C282.846 109.98 282.465 110.522 282.465 111.606V112.705C282.465 113.249 282.564 113.657 282.763 113.931C282.961 114.204 283.246 114.341 283.617 114.341C284.376 114.341 284.755 113.789 284.755 112.686V111.587ZM290.741 112.573C290.741 113.381 290.565 114.001 290.214 114.434C289.862 114.863 289.356 115.078 288.695 115.078C288.041 115.078 287.536 114.867 287.182 114.443C286.827 114.017 286.646 113.407 286.64 112.612V111.724C286.64 110.913 286.815 110.296 287.167 109.873C287.522 109.447 288.028 109.233 288.686 109.233C289.346 109.233 289.851 109.443 290.199 109.863C290.551 110.283 290.731 110.882 290.741 111.66V112.573ZM289.833 111.587C289.833 110.516 289.451 109.98 288.686 109.98C287.924 109.98 287.543 110.522 287.543 111.606V112.705C287.543 113.249 287.642 113.657 287.841 113.931C288.039 114.204 288.324 114.341 288.695 114.341C289.454 114.341 289.833 113.789 289.833 112.686V111.587ZM293.529 112.466L292.812 113.159V115H291.908V109.312H292.812V112.021L293.446 111.318L295.385 109.312H296.493L294.154 111.846L296.659 115H295.561L293.529 112.466Z" fill="black"/>
<path d="M343.267 115H342.358V110.396L340.742 110.879V110.103L343.14 109.297H343.267V115ZM349.663 112.573C349.663 113.381 349.487 114.001 349.136 114.434C348.784 114.863 348.278 115.078 347.617 115.078C346.963 115.078 346.458 114.867 346.104 114.443C345.749 114.017 345.568 113.407 345.562 112.612V111.724C345.562 110.913 345.737 110.296 346.089 109.873C346.444 109.447 346.95 109.233 347.607 109.233C348.268 109.233 348.773 109.443 349.121 109.863C349.473 110.283 349.653 110.882 349.663 111.66V112.573ZM348.755 111.587C348.755 110.516 348.372 109.98 347.607 109.98C346.846 109.98 346.465 110.522 346.465 111.606V112.705C346.465 113.249 346.564 113.657 346.763 113.931C346.961 114.204 347.246 114.341 347.617 114.341C348.376 114.341 348.755 113.789 348.755 112.686V111.587ZM354.741 112.573C354.741 113.381 354.565 114.001 354.214 114.434C353.862 114.863 353.356 115.078 352.695 115.078C352.041 115.078 351.536 114.867 351.182 114.443C350.827 114.017 350.646 113.407 350.64 112.612V111.724C350.64 110.913 350.815 110.296 351.167 109.873C351.522 109.447 352.028 109.233 352.686 109.233C353.346 109.233 353.851 109.443 354.199 109.863C354.551 110.283 354.731 110.882 354.741 111.66V112.573ZM353.833 111.587C353.833 110.516 353.451 109.98 352.686 109.98C351.924 109.98 351.543 110.522 351.543 111.606V112.705C351.543 113.249 351.642 113.657 351.841 113.931C352.039 114.204 352.324 114.341 352.695 114.341C353.454 114.341 353.833 113.789 353.833 112.686V111.587ZM357.529 112.466L356.812 113.159V115H355.908V109.312H356.812V112.021L357.446 111.318L359.385 109.312H360.493L358.154 111.846L360.659 115H359.561L357.529 112.466Z" fill="black"/>
<path d="M407.267 115H406.358V110.396L404.742 110.879V110.103L407.14 109.297H407.267V115ZM413.663 112.573C413.663 113.381 413.487 114.001 413.136 114.434C412.784 114.863 412.278 115.078 411.617 115.078C410.963 115.078 410.458 114.867 410.104 114.443C409.749 114.017 409.568 113.407 409.562 112.612V111.724C409.562 110.913 409.737 110.296 410.089 109.873C410.444 109.447 410.95 109.233 411.607 109.233C412.268 109.233 412.773 109.443 413.121 109.863C413.473 110.283 413.653 110.882 413.663 111.66V112.573ZM412.755 111.587C412.755 110.516 412.372 109.98 411.607 109.98C410.846 109.98 410.465 110.522 410.465 111.606V112.705C410.465 113.249 410.564 113.657 410.763 113.931C410.961 114.204 411.246 114.341 411.617 114.341C412.376 114.341 412.755 113.789 412.755 112.686V111.587ZM418.741 112.573C418.741 113.381 418.565 114.001 418.214 114.434C417.862 114.863 417.356 115.078 416.695 115.078C416.041 115.078 415.536 114.867 415.182 114.443C414.827 114.017 414.646 113.407 414.64 112.612V111.724C414.64 110.913 414.815 110.296 415.167 109.873C415.522 109.447 416.028 109.233 416.686 109.233C417.346 109.233 417.851 109.443 418.199 109.863C418.551 110.283 418.731 110.882 418.741 111.66V112.573ZM417.833 111.587C417.833 110.516 417.451 109.98 416.686 109.98C415.924 109.98 415.543 110.522 415.543 111.606V112.705C415.543 113.249 415.642 113.657 415.841 113.931C416.039 114.204 416.324 114.341 416.695 114.341C417.454 114.341 417.833 113.789 417.833 112.686V111.587ZM421.529 112.466L420.812 113.159V115H419.908V109.312H420.812V112.021L421.446 111.318L423.385 109.312H424.493L422.154 111.846L424.659 115H423.561L421.529 112.466Z" fill="black"/>
</g>
<defs>
<filter id="filter0_d_450_3" x="0.2854" y="-0.000732422" width="456.566" height="123.079" filterUnits="userSpaceOnUse" color-interpolation-filters="sRGB">
<feFlood flood-opacity="0" result="BackgroundImageFix"/>
<feColorMatrix in="SourceAlpha" type="matrix" values="0 0 0 0 0 0 0 0 0 0 0 0 0 0 0 0 0 0 127 0" result="hardAlpha"/>
<feOffset dy="4"/>
<feGaussianBlur stdDeviation="2"/>
<feComposite in2="hardAlpha" operator="out"/>
<feColorMatrix type="matrix" values="0 0 0 0 0 0 0 0 0 0 0 0 0 0 0 0 0 0 0.25 0"/>
<feBlend mode="normal" in2="BackgroundImageFix" result="effect1_dropShadow_450_3"/>
<feBlend mode="normal" in="SourceGraphic" in2="effect1_dropShadow_450_3" result="shape"/>
</filter>
</defs>
</svg>
