<svg width="20" height="10" viewBox="0 0 20 10" fill="none" xmlns="http://www.w3.org/2000/svg">
<path d="M19.9999 1.65923C20.0006 1.87269 19.9535 2.0836 19.8621 2.27646C19.7706 2.46932 19.6371 2.63924 19.4714 2.77372L10.9008 9.67496C10.6452 9.88511 10.3246 10 9.9937 10C9.66284 10 9.34224 9.88511 9.08665 9.67496L0.516026 2.53082C0.224315 2.28829 0.040869 1.93978 0.00604406 1.56196C-0.0287808 1.18414 0.087868 0.807959 0.330329 0.516168C0.572789 0.224377 0.921202 0.0408811 1.29892 0.00604624C1.67663 -0.0287877 2.05271 0.0878924 2.34442 0.330419L10.0008 6.71728L17.6573 0.544744C17.8669 0.370022 18.1223 0.259035 18.393 0.224916C18.6638 0.190795 18.9386 0.23497 19.1851 0.352214C19.4315 0.469458 19.6392 0.654862 19.7836 0.886491C19.928 1.11812 20.0031 1.38628 19.9999 1.65923Z" fill="black"/>
</svg>
