<svg width="15" height="13" viewBox="0 0 15 13" fill="none" xmlns="http://www.w3.org/2000/svg">
<path d="M7.5 13L7.23529 12.7811C1.54412 8.18519 0 6.56566 0 3.93939C0 1.75084 1.76471 0 3.97059 0C5.77941 0 6.79412 1.00673 7.5 1.79461C8.20588 1.00673 9.22059 0 11.0294 0C13.2353 0 15 1.75084 15 3.93939C15 6.56566 13.4559 8.18519 7.76471 12.7811L7.5 13ZM3.97059 0.875421C2.25 0.875421 0.882353 2.23232 0.882353 3.93939C0.882353 6.17172 2.29412 7.65993 7.5 11.862C12.7059 7.65993 14.1176 6.17172 14.1176 3.93939C14.1176 2.23232 12.75 0.875421 11.0294 0.875421C9.48529 0.875421 8.64706 1.79461 7.98529 2.53872L7.5 3.10774L7.01471 2.53872C6.35294 1.79461 5.51471 0.875421 3.97059 0.875421Z" fill="black"/>
</svg>
