<svg width="22" height="22" viewBox="0 0 22 22" fill="none" xmlns="http://www.w3.org/2000/svg">
<path d="M10.8696 7.97018C8.94353 7.97018 7.37172 9.54202 7.37172 11.4681C7.37172 13.3942 8.94353 14.9661 10.8696 14.9661C12.7957 14.9661 14.3675 13.3942 14.3675 11.4681C14.3675 9.54202 12.7957 7.97018 10.8696 7.97018ZM21.3606 11.4681C21.3606 10.0196 21.3737 8.58422 21.2924 7.13833C21.211 5.4589 20.8279 3.96841 19.5999 2.74032C18.3692 1.50961 16.8813 1.12911 15.2019 1.04777C13.7534 0.96642 12.3181 0.97954 10.8722 0.97954C9.42374 0.97954 7.98838 0.96642 6.54252 1.04777C4.86312 1.12911 3.37265 1.51224 2.14458 2.74032C0.913898 3.97103 0.533409 5.4589 0.452063 7.13833C0.370717 8.58684 0.383837 10.0222 0.383837 11.4681C0.383837 12.914 0.370717 14.352 0.452063 15.7979C0.533409 17.4773 0.916522 18.9678 2.14458 20.1959C3.37527 21.4266 4.86312 21.8071 6.54252 21.8885C7.991 21.9698 9.42636 21.9567 10.8722 21.9567C12.3207 21.9567 13.7561 21.9698 15.2019 21.8885C16.8813 21.8071 18.3718 21.424 19.5999 20.1959C20.8305 18.9652 21.211 17.4773 21.2924 15.7979C21.3764 14.352 21.3606 12.9166 21.3606 11.4681ZM10.8696 16.8502C7.89129 16.8502 5.48764 14.4465 5.48764 11.4681C5.48764 8.48975 7.89129 6.08606 10.8696 6.08606C13.8479 6.08606 16.2516 8.48975 16.2516 11.4681C16.2516 14.4465 13.8479 16.8502 10.8696 16.8502ZM16.472 7.12259C15.7766 7.12259 15.215 6.56103 15.215 5.86564C15.215 5.17025 15.7766 4.60869 16.472 4.60869C17.1674 4.60869 17.7289 5.17025 17.7289 5.86564C17.7291 6.03076 17.6967 6.1943 17.6336 6.3469C17.5706 6.49949 17.478 6.63814 17.3612 6.7549C17.2445 6.87166 17.1058 6.96424 16.9532 7.02733C16.8006 7.09043 16.6371 7.1228 16.472 7.12259Z" fill="black"/>
</svg>
