<svg width="44" height="44" viewBox="0 0 44 44" fill="none" xmlns="http://www.w3.org/2000/svg">
<circle cx="22" cy="22" r="22" fill="#F2F2F2"/>
<path d="M24.5067 30.9999C24.3146 31.0006 24.1248 30.9582 23.9512 30.8759C23.7776 30.7935 23.6247 30.6734 23.5037 30.5242L17.2925 22.8107C17.1034 22.5806 17 22.2921 17 21.9943C17 21.6966 17.1034 21.408 17.2925 21.178L23.7223 13.4644C23.9405 13.2019 24.2542 13.0368 24.5942 13.0054C24.9343 12.9741 25.2728 13.0791 25.5354 13.2973C25.7981 13.5155 25.9632 13.8291 25.9946 14.169C26.0259 14.509 25.9209 14.8474 25.7026 15.11L19.9544 22.0008L25.5097 28.8915C25.667 29.0802 25.7669 29.31 25.7976 29.5537C25.8283 29.7974 25.7885 30.0448 25.683 30.2666C25.5775 30.4884 25.4106 30.6753 25.2022 30.8053C24.9937 30.9352 24.7524 31.0028 24.5067 30.9999Z" fill="#A4A4A4"/>
</svg>
