<svg width="26" height="21" viewBox="0 0 26 21" fill="none" xmlns="http://www.w3.org/2000/svg">
<path fill-rule="evenodd" clip-rule="evenodd" d="M0.541992 2.1C0.541992 1.54304 0.743926 1.0089 1.10337 0.615075C1.46282 0.221249 1.95033 0 2.45866 0H23.542C24.0503 0 24.5378 0.221249 24.8973 0.615075C25.2567 1.0089 25.4587 1.54304 25.4587 2.1C25.4587 2.65695 25.2567 3.19109 24.8973 3.58492C24.5378 3.97875 24.0503 4.2 23.542 4.2H2.45866C1.95033 4.2 1.46282 3.97875 1.10337 3.58492C0.743926 3.19109 0.541992 2.65695 0.541992 2.1ZM0.541992 10.5C0.541992 9.94303 0.743926 9.40889 1.10337 9.01507C1.46282 8.62124 1.95033 8.39999 2.45866 8.39999H23.542C24.0503 8.39999 24.5378 8.62124 24.8973 9.01507C25.2567 9.40889 25.4587 9.94303 25.4587 10.5C25.4587 11.0569 25.2567 11.5911 24.8973 11.9849C24.5378 12.3787 24.0503 12.6 23.542 12.6H2.45866C1.95033 12.6 1.46282 12.3787 1.10337 11.9849C0.743926 11.5911 0.541992 11.0569 0.541992 10.5Z" fill="black"/>
<path fill-rule="evenodd" clip-rule="evenodd" d="M10.125 18.8998C10.125 18.3428 10.3269 17.8087 10.6864 17.4149C11.0458 17.0211 11.5333 16.7998 12.0417 16.7998H23.5417C24.05 16.7998 24.5375 17.0211 24.897 17.4149C25.2564 17.8087 25.4583 18.3428 25.4583 18.8998C25.4583 19.4568 25.2564 19.9909 24.897 20.3847C24.5375 20.7786 24.05 20.9998 23.5417 20.9998H12.0417C11.5333 20.9998 11.0458 20.7786 10.6864 20.3847C10.3269 19.9909 10.125 19.4568 10.125 18.8998Z" fill="black"/>
</svg>
