<svg width="15" height="16" viewBox="0 0 15 16" fill="none" xmlns="http://www.w3.org/2000/svg">
<g clip-path="url(#clip0_168_8903)">
<path d="M6.14185 1.39379C6.14185 1.94523 6.56094 2.39223 7.07791 2.39223L7.92219 2.39223C9.06998 2.39223 10.0038 3.38829 10.0038 4.61264L10.0038 10.0677L8.51993 10.0677C8.27779 10.0677 8.13309 10.3553 8.26695 10.5705L10.6868 14.4614C10.8069 14.6545 11.0727 14.6545 11.1928 14.4614L13.6127 10.5705C13.7465 10.3553 13.6019 10.0677 13.3597 10.0677L11.8758 10.0677L11.8758 4.61264C11.8758 2.28723 10.1022 0.395356 7.92216 0.395356L7.07788 0.395356C6.56094 0.395325 6.14185 0.842357 6.14185 1.39379Z" fill="black"/>
<path d="M3.80743 1.53858L1.38754 5.42952C1.25368 5.64477 1.39835 5.93233 1.64051 5.93233L3.12434 5.93233L3.12434 11.7891C3.12434 11.9197 3.1481 12.0443 3.19085 12.1586C3.53157 14.117 5.14492 15.6046 7.07805 15.6046L7.92232 15.6046C8.4393 15.6046 8.85836 15.1576 8.85836 14.6062C8.85836 14.0548 8.43927 13.6077 7.92232 13.6077L7.07805 13.6077C5.93025 13.6077 4.99644 12.6117 4.99644 11.3874L4.99644 5.9323L6.48027 5.9323C6.72241 5.9323 6.86711 5.64474 6.73325 5.42949L4.31336 1.53855C4.19327 1.34549 3.92749 1.34549 3.80743 1.53858Z" fill="black"/>
</g>
<defs>
<clipPath id="clip0_168_8903">
<rect width="16" height="15" fill="white" transform="translate(0 16) rotate(-90)"/>
</clipPath>
</defs>
</svg>
