<svg width="110" height="28" viewBox="0 0 110 28" fill="none" xmlns="http://www.w3.org/2000/svg">
<path d="M8.82991 0V10.2662L0.623535 14.0481L8.82991 0Z" fill="#FAB9AB"/>
<path d="M8.82991 10.2661V19.1916L0.623535 14.0481L8.82991 10.2661Z" fill="#F591DC"/>
<path d="M8.82991 21.02V27.9025L0.623535 16.0195L8.82991 21.02Z" fill="#FEDD7F"/>
<path d="M8.82983 0V10.2662L17.0366 14.0481L8.82983 0Z" fill="#F591DC"/>
<path d="M8.83008 10.2661V19.1916L17.0368 14.0481L8.83008 10.2661Z" fill="#FAB9AB"/>
<path d="M8.83008 21.02V27.9025L17.0368 16.0195L8.83008 21.02Z" fill="#FFE07C"/>
<path d="M46.72 6.2H34.24V9.896H38.56V23H42.4V9.896H46.72V6.2ZM50.4513 13.136V11H46.8513V23H50.4513V17.576C50.4513 15.2 52.5633 14.6 54.0513 14.84V10.76C52.5393 10.76 50.9313 11.528 50.4513 13.136ZM57.5341 9.944C58.7101 9.944 59.6941 8.96 59.6941 7.784C59.6941 6.608 58.7101 5.624 57.5341 5.624C56.3581 5.624 55.3741 6.608 55.3741 7.784C55.3741 8.96 56.3581 9.944 57.5341 9.944ZM55.7341 23H59.3341V11H55.7341V23ZM69.1444 10.664C67.5364 10.664 66.3604 11.216 65.5684 12.128V6.2H61.9684V23H65.5684V21.872C66.3604 22.784 67.5364 23.336 69.1444 23.336C72.2884 23.336 74.8804 20.576 74.8804 17C74.8804 13.424 72.2884 10.664 69.1444 10.664ZM68.4244 19.928C66.7684 19.928 65.5684 18.8 65.5684 17C65.5684 15.2 66.7684 14.072 68.4244 14.072C70.0804 14.072 71.2804 15.2 71.2804 17C71.2804 18.8 70.0804 19.928 68.4244 19.928ZM80.1376 18.44H88.6576C88.7536 17.984 88.8016 17.504 88.8016 17C88.8016 13.376 86.2096 10.664 82.7056 10.664C78.9136 10.664 76.3216 13.424 76.3216 17C76.3216 20.576 78.8656 23.336 82.9696 23.336C85.2496 23.336 87.0256 22.496 88.2016 20.864L85.3216 19.208C84.8416 19.736 84.0016 20.12 83.0176 20.12C81.6976 20.12 80.5936 19.688 80.1376 18.44ZM80.0656 15.752C80.4016 14.528 81.3136 13.856 82.6816 13.856C83.7616 13.856 84.8416 14.36 85.2256 15.752H80.0656ZM94.8387 19.64L99.3747 13.4V11H90.2547V14.36H94.5507L90.0147 20.6V23H99.6147V19.64H94.8387Z" fill="black"/>
</svg>
