<svg width="44" height="44" viewBox="0 0 44 44" fill="none" xmlns="http://www.w3.org/2000/svg">
<circle cx="22" cy="22" r="22" transform="rotate(-180 22 22)" fill="#F2F2F2"/>
<path d="M19.4933 13.0001C19.6854 12.9994 19.8752 13.0418 20.0488 13.1241C20.2224 13.2065 20.3753 13.3266 20.4963 13.4758L26.7075 21.1893C26.8966 21.4194 27 21.7079 27 22.0057C27 22.3034 26.8966 22.592 26.7075 22.822L20.2777 30.5356C20.0595 30.7981 19.7458 30.9632 19.4058 30.9946C19.0657 31.0259 18.7272 30.9209 18.4646 30.7027C18.2019 30.4845 18.0368 30.1709 18.0054 29.831C17.9741 29.491 18.0791 29.1526 18.2974 28.89L24.0456 21.9992L18.4903 15.1085C18.333 14.9198 18.2331 14.69 18.2024 14.4463C18.1717 14.2026 18.2115 13.9552 18.317 13.7334C18.4225 13.5116 18.5894 13.3247 18.7978 13.1947C19.0063 13.0648 19.2476 12.9972 19.4933 13.0001Z" fill="#A4A4A4"/>
</svg>
