<svg width="6" height="12" viewBox="0 0 6 12" fill="none" xmlns="http://www.w3.org/2000/svg">
<path d="M0.851445 11.9985C0.652853 11.9988 0.460393 11.9292 0.307477 11.8017C0.221413 11.7299 0.150271 11.6418 0.0981246 11.5423C0.0459785 11.4428 0.0138536 11.3339 0.0035897 11.2219C-0.00667418 11.1098 0.00512483 10.9969 0.0383107 10.8895C0.0714965 10.7821 0.125416 10.6823 0.196984 10.5958L4.00476 6.01173L0.332976 1.41906C0.262375 1.33158 0.209651 1.23092 0.177836 1.12286C0.146021 1.01481 0.135741 0.901501 0.147589 0.789439C0.159437 0.677378 0.193177 0.568777 0.246871 0.469879C0.300566 0.370982 0.373156 0.283737 0.460468 0.213159C0.548409 0.135301 0.651394 0.0765731 0.76296 0.0406621C0.874526 0.00475112 0.992266 -0.00756759 1.10879 0.00447845C1.22531 0.0165245 1.3381 0.0526755 1.44008 0.110663C1.54206 0.16865 1.63102 0.247221 1.70139 0.341446L5.80665 5.47292C5.93166 5.62596 6 5.81791 6 6.01601C6 6.2141 5.93166 6.40606 5.80665 6.55909L1.5569 11.6906C1.47164 11.7941 1.36333 11.8759 1.24075 11.9294C1.11818 11.9829 0.984807 12.0065 0.851445 11.9985Z" fill="black" fill-opacity="0.5"/>
</svg>
