<svg width="19" height="23" viewBox="0 0 19 23" fill="none" xmlns="http://www.w3.org/2000/svg">
<path d="M0.875 2.875C0.875 2.1125 1.1779 1.38124 1.71707 0.842068C2.25623 0.302901 2.9875 0 3.75 0L15.25 0C16.0125 0 16.7438 0.302901 17.2829 0.842068C17.8221 1.38124 18.125 2.1125 18.125 2.875V22.2812C18.1249 22.4113 18.0896 22.5388 18.0228 22.6503C17.9559 22.7619 17.8601 22.8532 17.7455 22.9145C17.6309 22.9759 17.5018 23.005 17.3719 22.9988C17.242 22.9926 17.1163 22.9513 17.0081 22.8792L9.5 18.8327L1.99194 22.8792C1.8837 22.9513 1.75796 22.9926 1.62809 22.9988C1.49823 23.005 1.36912 22.9759 1.2545 22.9145C1.13988 22.8532 1.04406 22.7619 0.977226 22.6503C0.910397 22.5388 0.875067 22.4113 0.875 22.2812V2.875ZM3.75 1.4375C3.36875 1.4375 3.00312 1.58895 2.73353 1.85853C2.46395 2.12812 2.3125 2.49375 2.3125 2.875V20.9386L9.10181 17.3708C9.21977 17.2923 9.35831 17.2504 9.5 17.2504C9.64169 17.2504 9.78023 17.2923 9.89819 17.3708L16.6875 20.9386V2.875C16.6875 2.49375 16.536 2.12812 16.2665 1.85853C15.9969 1.58895 15.6312 1.4375 15.25 1.4375H3.75Z" fill="black"/>
</svg>
