<svg width="19" height="19" viewBox="0 0 19 19" fill="none" xmlns="http://www.w3.org/2000/svg">
<path d="M9.10626 6.33328C8.26621 6.33328 7.46056 6.66699 6.86656 7.261C6.27255 7.855 5.93884 8.66065 5.93884 9.5007C5.93884 10.3407 6.27255 11.1464 6.86656 11.7404C7.46056 12.3344 8.26621 12.6681 9.10626 12.6681C9.94631 12.6681 10.752 12.3344 11.346 11.7404C11.94 11.1464 12.2737 10.3407 12.2737 9.5007C12.2737 8.66065 11.94 7.855 11.346 7.261C10.752 6.66699 9.94631 6.33328 9.10626 6.33328ZM7.52255 9.5007C7.52255 9.08067 7.6894 8.67785 7.98641 8.38085C8.28341 8.08384 8.68623 7.91699 9.10626 7.91699C9.52628 7.91699 9.9291 8.08384 10.2261 8.38085C10.5231 8.67785 10.69 9.08067 10.69 9.5007C10.69 9.92072 10.5231 10.3235 10.2261 10.6205C9.9291 10.9175 9.52628 11.0844 9.10626 11.0844C8.68623 11.0844 8.28341 10.9175 7.98641 10.6205C7.6894 10.3235 7.52255 9.92072 7.52255 9.5007Z" fill="black"/>
<path d="M13.2528 3.79625C12.9607 3.8499 12.6593 3.78549 12.4146 3.61714C12.17 3.44879 12.0021 3.19027 11.9479 2.89829L11.5361 0.655756C11.5159 0.546547 11.4637 0.445798 11.3862 0.366286C11.3086 0.286774 11.2092 0.232083 11.1006 0.20915C9.7854 -0.0697167 8.42638 -0.0697167 7.11121 0.20915C7.00254 0.232083 6.90314 0.286774 6.8256 0.366286C6.74806 0.445798 6.69589 0.546547 6.67569 0.655756L6.26551 2.89829C6.23556 3.058 6.17134 3.20933 6.07729 3.34185C5.98323 3.47437 5.86157 3.58492 5.72068 3.6659C5.5798 3.74688 5.42303 3.79636 5.26118 3.81094C5.09933 3.82551 4.93625 3.80483 4.78316 3.75032L2.6309 2.98381C2.52647 2.9464 2.4133 2.94073 2.30565 2.9675C2.198 2.99427 2.10067 3.05229 2.02593 3.13426C1.1248 4.12724 0.442219 5.29919 0.0272873 6.57565C-0.00698681 6.68113 -0.00901947 6.79444 0.0214491 6.90108C0.0519177 7.00772 0.113503 7.10285 0.198328 7.1743L1.94357 8.64873C2.06758 8.75339 2.16725 8.88385 2.23561 9.03102C2.30398 9.17818 2.3394 9.33849 2.3394 9.50076C2.3394 9.66303 2.30398 9.82334 2.23561 9.97051C2.16725 10.1177 2.06758 10.2481 1.94357 10.3528L0.198328 11.8272C0.113503 11.8987 0.0519177 11.9938 0.0214491 12.1004C-0.00901947 12.2071 -0.00698681 12.3204 0.0272873 12.4259C0.442974 13.7016 1.12474 14.8746 2.02751 15.8673C2.10226 15.9492 2.19958 16.0072 2.30724 16.034C2.41489 16.0608 2.52805 16.0551 2.63249 16.0177L4.78633 15.2512C4.93939 15.1961 5.10261 15.175 5.26465 15.1893C5.42669 15.2037 5.58367 15.2531 5.72471 15.3341C5.86574 15.4152 5.98745 15.526 6.08138 15.6588C6.17531 15.7916 6.23923 15.9433 6.26868 16.1032L6.67727 18.3458C6.71845 18.5675 6.89108 18.7449 7.11279 18.7908C8.42849 19.0697 9.78805 19.0697 11.1037 18.7908C11.212 18.7679 11.311 18.7134 11.3883 18.6341C11.4655 18.5549 11.5175 18.4546 11.5377 18.3458L11.9494 16.1032C11.9794 15.9435 12.0436 15.7922 12.1377 15.6597C12.2317 15.5272 12.3534 15.4166 12.4943 15.3356C12.6352 15.2546 12.7919 15.2052 12.9538 15.1906C13.1156 15.176 13.2787 15.1967 13.4318 15.2512L15.584 16.0177C15.7978 16.0937 16.037 16.0336 16.189 15.8673C17.0902 14.8743 17.7727 13.7023 18.1877 12.4259C18.2219 12.3204 18.224 12.2071 18.1935 12.1004C18.163 11.9938 18.1014 11.8987 18.0166 11.8272L16.2714 10.3528C16.1471 10.2483 16.0472 10.1179 15.9787 9.97069C15.9102 9.82351 15.8747 9.66312 15.8747 9.50076C15.8747 9.33841 15.9102 9.17802 15.9787 9.03083C16.0472 8.88365 16.1471 8.75323 16.2714 8.64873L18.0166 7.1743C18.1014 7.10285 18.163 7.00772 18.1935 6.90108C18.224 6.79444 18.2219 6.68113 18.1877 6.57565C17.7715 5.29974 17.0892 4.12674 16.1859 3.13426C16.1111 3.05229 16.0138 2.99427 15.9061 2.9675C15.7985 2.94073 15.6853 2.9464 15.5809 2.98381L13.427 3.75032C13.3698 3.77088 13.311 3.78677 13.2512 3.79783L13.2528 3.79625ZM2.76868 4.7148L4.25262 5.24217C4.62186 5.37362 5.01523 5.42336 5.40557 5.38795C5.7959 5.35254 6.1739 5.23282 6.51346 5.03707C6.85302 4.84132 7.14603 4.57419 7.37228 4.25415C7.59853 3.9341 7.75261 3.56876 7.82388 3.18335L8.1042 1.64716C8.76941 1.5641 9.44237 1.5641 10.1076 1.64716L10.3895 3.18335C10.4603 3.56902 10.614 3.93469 10.8402 4.25503C11.0663 4.57537 11.3593 4.84272 11.699 5.03856C12.0387 5.2344 12.417 5.35404 12.8075 5.3892C13.198 5.42435 13.5915 5.37419 13.9607 5.24217L15.4415 4.71321C15.8454 5.24217 16.1811 5.81864 16.4392 6.42995L15.2451 7.43877C14.9451 7.6921 14.7039 8.00785 14.5385 8.36399C14.3731 8.72013 14.2874 9.10808 14.2874 9.50076C14.2874 9.89344 14.3731 10.2814 14.5385 10.6375C14.7039 10.9937 14.9451 11.3094 15.2451 11.5627L16.4408 12.5716C16.1817 13.1835 15.8465 13.7603 15.4431 14.2883L13.9592 13.7593C13.5899 13.6279 13.1965 13.5782 12.8062 13.6136C12.4159 13.649 12.0379 13.7687 11.6983 13.9645C11.3588 14.1602 11.0657 14.4273 10.8395 14.7474C10.6133 15.0674 10.4592 15.4328 10.3879 15.8182L10.106 17.3544C9.44079 17.4375 8.76782 17.4375 8.10261 17.3544L7.8223 15.8182C7.75152 15.4325 7.59775 15.0668 7.37162 14.7465C7.1455 14.4261 6.85244 14.1588 6.51274 13.963C6.17303 13.7671 5.79482 13.6475 5.40429 13.6123C5.01376 13.5772 4.62025 13.6273 4.25103 13.7593L2.77185 14.2883C2.36838 13.7603 2.03315 13.1835 1.77412 12.5716L2.96823 11.5612C3.268 11.3078 3.5089 10.9922 3.67415 10.6362C3.83939 10.2802 3.925 9.89244 3.925 9.49997C3.925 9.1075 3.83939 8.71975 3.67415 8.36376C3.5089 8.00777 3.268 7.6921 2.96823 7.43877L1.77253 6.42995C2.03226 5.81864 2.36801 5.24217 2.77027 4.71321L2.76868 4.7148Z" fill="black"/>
</svg>
