<svg width="13" height="13" viewBox="0 0 13 13" fill="none" xmlns="http://www.w3.org/2000/svg">
<path d="M12.4584 6.5L11.1367 4.98875L11.3209 2.99L9.3655 2.54583L8.34175 0.8125L6.50008 1.60333L4.65841 0.8125L3.63466 2.54042L1.67925 2.97917L1.86341 4.98333L0.541748 6.5L1.86341 8.01125L1.67925 10.0154L3.63466 10.4596L4.65841 12.1875L6.50008 11.3913L8.34175 12.1821L9.3655 10.4542L11.3209 10.01L11.1367 8.01125L12.4584 6.5ZM5.08091 8.67208L3.79175 7.37208C3.74153 7.32197 3.70169 7.26245 3.67451 7.19692C3.64733 7.13139 3.63334 7.06115 3.63334 6.99021C3.63334 6.91927 3.64733 6.84902 3.67451 6.7835C3.70169 6.71797 3.74153 6.65844 3.79175 6.60833L3.82966 6.57042C4.04091 6.35917 4.38758 6.35917 4.59883 6.57042L5.47091 7.44792L8.2605 4.65292C8.47175 4.44167 8.81841 4.44167 9.02966 4.65292L9.06758 4.69083C9.27883 4.90208 9.27883 5.24333 9.06758 5.45458L5.86091 8.67208C5.63883 8.88333 5.29758 8.88333 5.08091 8.67208Z" fill="black"/>
</svg>
