<svg width="25" height="20" viewBox="0 0 25 20" fill="none" xmlns="http://www.w3.org/2000/svg">
<path d="M24.1702 2.94033C23.308 3.31137 22.3817 3.56208 21.4079 3.6754C22.4127 3.09155 23.1644 2.17263 23.5227 1.09012C22.5788 1.63464 21.5456 2.01793 20.4682 2.22331C19.7437 1.47206 18.7841 0.97412 17.7383 0.806796C16.6925 0.639473 15.6191 0.812129 14.6847 1.29796C13.7504 1.78379 13.0073 2.55561 12.5709 3.49359C12.1345 4.43157 12.0291 5.48324 12.2712 6.48531C10.3585 6.39204 8.48732 5.90924 6.77915 5.06822C5.07097 4.22721 3.56398 3.04679 2.35597 1.60357C1.94292 2.29551 1.70542 3.09777 1.70542 3.95218C1.70496 4.72134 1.9 5.47872 2.27324 6.15712C2.64647 6.83552 3.18637 7.41396 3.84502 7.84113C3.08116 7.81752 2.33415 7.61708 1.66618 7.25648V7.31665C1.6661 8.39543 2.05035 9.44101 2.75372 10.276C3.45709 11.1109 4.43627 11.6839 5.5251 11.8975C4.8165 12.0838 4.07358 12.1112 3.35245 11.9778C3.65966 12.906 4.25806 13.7177 5.0639 14.2992C5.86973 14.8808 6.84265 15.203 7.84644 15.2209C6.14244 16.52 4.038 17.2246 1.87167 17.2215C1.48793 17.2216 1.10451 17.1999 0.723389 17.1564C2.92234 18.5294 5.48208 19.2581 8.09634 19.2553C16.9459 19.2553 21.7838 12.1372 21.7838 5.96384C21.7838 5.76328 21.7786 5.56071 21.7693 5.36014C22.7104 4.69925 23.5226 3.88087 24.1681 2.94334L24.1702 2.94033V2.94033Z" fill="black"/>
</svg>
