<svg width="20" height="19" viewBox="0 0 20 19" fill="none" xmlns="http://www.w3.org/2000/svg">
<path d="M17.5 4.51167H1.875V3.90799L15.625 2.84551V3.90799H17.5V2.09695C17.5 0.768851 16.3862 -0.163232 15.0262 0.023909L2.475 1.75526C1.11375 1.94361 0 3.18357 0 4.51167V16.5853C0 17.2257 0.263392 17.8399 0.732233 18.2927C1.20107 18.7456 1.83696 19 2.5 19H17.5C18.163 19 18.7989 18.7456 19.2678 18.2927C19.7366 17.8399 20 17.2257 20 16.5853V6.92639C20 6.28597 19.7366 5.67177 19.2678 5.21892C18.7989 4.76608 18.163 4.51167 17.5 4.51167ZM15.625 12.9704C15.3787 12.9704 15.1348 12.9234 14.9073 12.8323C14.6797 12.7412 14.473 12.6077 14.2989 12.4394C14.1248 12.2711 13.9867 12.0714 13.8925 11.8515C13.7984 11.6317 13.7499 11.3961 13.75 11.1582C13.7501 10.9203 13.7987 10.6847 13.893 10.465C13.9873 10.2452 14.1256 10.0455 14.2998 9.87734C14.474 9.70917 14.6808 9.57579 14.9084 9.48482C15.136 9.39385 15.3799 9.34707 15.6263 9.34715C16.1237 9.34731 16.6007 9.53833 16.9523 9.87819C17.304 10.2181 17.5014 10.6789 17.5012 11.1594C17.5011 11.6399 17.3033 12.1006 16.9515 12.4402C16.5996 12.7799 16.1224 12.9706 15.625 12.9704Z" fill="black"/>
</svg>
