<svg width="23" height="24" viewBox="0 0 23 24" fill="none" xmlns="http://www.w3.org/2000/svg">
<path fill-rule="evenodd" clip-rule="evenodd" d="M11.3 20.206C11.0284 20.6594 10.6128 21.0088 10.1194 21.1984C9.62601 21.388 9.08334 21.4069 8.578 21.252C8.07365 21.0979 7.63455 20.7811 7.32934 20.351C7.02412 19.921 6.86998 19.4019 6.891 18.875C6.551 15.075 4.433 11.815 1.198 10.077C0.93594 9.93745 0.703969 9.74762 0.51536 9.51835C0.32675 9.28908 0.185204 9.02487 0.0988228 8.74083C0.0124415 8.45679 -0.0170795 8.15851 0.0119493 7.86305C0.0409781 7.56759 0.127987 7.28076 0.267996 7.01897C0.667996 6.27097 1.43 5.81897 2.268 5.81897C2.643 5.81897 3.017 5.90897 3.339 6.08997C5.484 7.23297 7.374 8.87497 8.739 10.748C8.554 9.20497 8.066 7.70097 7.249 6.38797C7.06779 6.08344 6.95647 5.74246 6.9231 5.38967C6.88972 5.03688 6.93511 4.68108 7.056 4.34797C7.172 4.03797 7.326 3.75497 7.598 3.47097C7.868 3.18697 8.165 3.03197 8.449 2.91597C8.71872 2.80422 9.0092 2.75137 9.301 2.76097C9.765 2.76097 10.217 2.90297 10.591 3.14797C10.626 3.16997 10.659 3.19097 10.692 3.21397C10.656 3.17397 10.592 3.13497 10.592 3.13497C13.374 4.83597 15.745 7.17997 17.383 9.79497C17.1395 7.63795 16.5404 5.53616 15.61 3.57497C15.4689 3.27838 15.3878 2.95688 15.3712 2.62888C15.3545 2.30088 15.4028 1.97283 15.5131 1.6635C15.6235 1.35418 15.7938 1.06966 16.0143 0.826245C16.2347 0.58283 16.5011 0.3853 16.798 0.244966C17.1306 0.0806893 17.4971 -0.00322798 17.868 -3.42082e-05C18.823 -3.42082e-05 19.714 0.567966 20.127 1.43197C20.9011 3.05651 21.4937 4.76148 21.894 6.51597C22.294 8.29597 22.514 10.168 22.527 12.026C22.527 13.91 22.307 15.742 21.907 17.536C21.804 18.013 21.687 18.465 21.546 18.942C21.107 20.529 20.604 21.755 20.101 22.697C19.8857 23.0909 19.5684 23.4197 19.1824 23.6489C18.7964 23.8781 18.3559 23.9994 17.907 24C17.533 24 17.172 23.91 16.837 23.755C16.087 23.406 15.637 22.761 15.469 22.052C15.4246 21.8615 15.4028 21.6665 15.404 21.471C15.404 20.929 15.378 20.568 15.378 20.568C15.378 17.873 14.734 15.307 13.548 13.05C13.3879 15.5818 12.6169 18.0371 11.301 20.206H11.3Z" fill="black" fill-opacity="0.5"/>
</svg>
