<svg width="21" height="22" viewBox="0 0 21 22" fill="none" xmlns="http://www.w3.org/2000/svg">
<path fill-rule="evenodd" clip-rule="evenodd" d="M10.3081 17.7048C10.0701 18.1012 9.70576 18.4066 9.27329 18.5723C8.84083 18.7381 8.36516 18.7545 7.92221 18.6192C7.48013 18.4845 7.09525 18.2075 6.82772 17.8316C6.56018 17.4557 6.42507 17.002 6.4435 16.5414C6.14548 13.2198 4.28898 10.3702 1.45339 8.85097C1.22369 8.72901 1.02036 8.56308 0.855037 8.36268C0.689714 8.16227 0.565645 7.93132 0.489929 7.68304C0.414213 7.43476 0.388336 7.17403 0.413781 6.91576C0.439226 6.6575 0.515492 6.40677 0.638215 6.17794C0.988828 5.5241 1.65675 5.129 2.39128 5.129C2.71998 5.129 3.04781 5.20768 3.33005 5.36589C5.21021 6.365 6.86686 7.80029 8.06333 9.43749C7.90117 8.08874 7.47342 6.77408 6.7573 5.62637C6.59846 5.36018 6.50089 5.06213 6.47163 4.75375C6.44238 4.44537 6.48217 4.13436 6.58812 3.84319C6.6898 3.57221 6.82479 3.32484 7.06321 3.07659C7.29987 2.82835 7.5602 2.69286 7.80914 2.59146C8.04556 2.49378 8.30017 2.44759 8.55594 2.45598C8.96265 2.45598 9.35885 2.5801 9.68667 2.79426C9.71735 2.81349 9.74628 2.83184 9.7752 2.85195C9.74365 2.81698 9.68755 2.78289 9.68755 2.78289C12.1261 4.26975 14.2043 6.31867 15.6401 8.60447C15.4267 6.719 14.9016 4.8818 14.086 3.1675C13.9624 2.90825 13.8912 2.62723 13.8766 2.34052C13.8621 2.05381 13.9044 1.76705 14.0011 1.49667C14.0978 1.22629 14.2471 0.977588 14.4404 0.764816C14.6336 0.552045 14.867 0.379382 15.1273 0.256714C15.4188 0.113119 15.7401 0.0397656 16.0652 0.0425573C16.9023 0.0425573 17.6833 0.539052 18.0453 1.29428C18.7239 2.71431 19.2433 4.20465 19.5941 5.73826C19.9447 7.29418 20.1376 8.93051 20.149 10.5546C20.149 12.2014 19.9561 13.8028 19.6055 15.371C19.5152 15.7879 19.4127 16.183 19.2891 16.6C18.9043 17.9872 18.4634 19.0588 18.0225 19.8822C17.8338 20.2266 17.5557 20.514 17.2174 20.7143C16.879 20.9147 16.4929 21.0207 16.0994 21.0212C15.7716 21.0212 15.4551 20.9425 15.1615 20.807C14.5041 20.502 14.1097 19.9382 13.9624 19.3184C13.9235 19.152 13.9044 18.9815 13.9054 18.8106C13.9054 18.3368 13.8826 18.0213 13.8826 18.0213C13.8826 15.6655 13.3182 13.4226 12.2786 11.4497C12.1382 13.6628 11.4616 15.809 10.3081 17.7048Z" fill="black"/>
</svg>
